<svg width="21" height="21" viewBox="0 0 21 21" fill="none" xmlns="http://www.w3.org/2000/svg">
<g clip-path="url(#clip0_263_154)">
<g clip-path="url(#clip1_263_154)">
<mask id="mask0_263_154" style="mask-type:luminance" maskUnits="userSpaceOnUse" x="0" y="0" width="21" height="21">
<path d="M0.602051 0.264648H20.6021V20.2646H0.602051V0.264648Z" fill="white"/>
</mask>
<g mask="url(#mask0_263_154)">
<path d="M13.6912 8.35381L18.9354 3.10965V5.26465C18.9354 5.48566 19.0232 5.69762 19.1795 5.8539C19.3357 6.01018 19.5477 6.09798 19.7687 6.09798C19.9897 6.09798 20.2017 6.01018 20.358 5.8539C20.5143 5.69762 20.6021 5.48566 20.6021 5.26465V1.09798C20.602 1.07043 20.6007 1.04289 20.5979 1.01548C20.5971 1.00298 20.5946 0.991315 20.5929 0.979648L20.5854 0.935482L20.5745 0.893815L20.5654 0.856315L20.5512 0.816315L20.5379 0.778815L20.5212 0.742982L20.5029 0.705482L20.4829 0.672148L20.4612 0.635482L20.4354 0.599648L20.4129 0.569648C20.3958 0.548514 20.3777 0.528213 20.3587 0.508815C20.3393 0.489512 20.3182 0.471157 20.2971 0.453815L20.267 0.431315L20.2312 0.404648C20.2196 0.396315 20.207 0.390482 20.1954 0.382982L20.1621 0.362982L20.1237 0.344648L20.0879 0.327982L20.0504 0.314648L20.0104 0.300482L19.9729 0.290482L19.9312 0.280482L19.8871 0.273815L19.8521 0.268815C19.8244 0.266063 19.7965 0.264672 19.7687 0.264648L15.6021 0.264648C15.381 0.264648 15.1691 0.352446 15.0128 0.508726C14.8565 0.665006 14.7687 0.876968 14.7687 1.09798C14.7687 1.319 14.8565 1.53096 15.0128 1.68724C15.1691 1.84352 15.381 1.93132 15.6021 1.93132H17.7571L12.5129 7.17548C12.3611 7.33265 12.2771 7.54315 12.279 7.76165C12.2809 7.98015 12.3685 8.18916 12.523 8.34366C12.6775 8.49817 12.8866 8.58581 13.105 8.58771C13.3235 8.58961 13.534 8.50561 13.6912 8.35381ZM7.51288 12.1755L2.26872 17.4196V15.2646C2.26872 15.0436 2.18092 14.8317 2.02464 14.6754C1.86836 14.5191 1.6564 14.4313 1.43538 14.4313C1.21437 14.4313 1.00241 14.5191 0.846128 14.6754C0.689848 14.8317 0.602051 15.0436 0.602051 15.2646L0.602051 19.4313C0.602051 19.4588 0.603717 19.4863 0.606217 19.5138L0.611217 19.5496L0.617884 19.5938L0.628717 19.6355L0.637884 19.673L0.652051 19.713L0.665384 19.7505L0.682051 19.7863L0.700384 19.8238L0.720384 19.8571L0.742051 19.8938L0.768717 19.9296L0.791217 19.9596C0.807884 19.9805 0.826217 20.0013 0.845384 20.0205H0.846217C0.866217 20.0405 0.886217 20.0588 0.907051 20.0755L0.937051 20.098C0.948717 20.1063 0.960384 20.1163 0.972884 20.1238C0.984551 20.1321 0.997051 20.1388 1.00872 20.1463L1.04205 20.1663L1.08038 20.1846L1.11622 20.2013L1.15372 20.2146L1.19372 20.2288L1.23122 20.238C1.24538 20.2421 1.25872 20.2463 1.27288 20.2488L1.31705 20.2555L1.35288 20.2605C1.38038 20.263 1.40788 20.2646 1.43538 20.2646H5.60205C5.82306 20.2646 6.03503 20.1769 6.19131 20.0206C6.34759 19.8643 6.43538 19.6523 6.43538 19.4313C6.43538 19.2103 6.34759 18.9983 6.19131 18.8421C6.03503 18.6858 5.82306 18.598 5.60205 18.598H3.44705L8.69122 13.3538C8.84302 13.1966 8.92701 12.9861 8.92511 12.7676C8.92321 12.5492 8.83557 12.3401 8.68107 12.1856C8.52656 12.0311 8.31755 11.9435 8.09905 11.9416C7.88055 11.9397 7.67005 12.0237 7.51288 12.1755ZM20.4354 19.9296L20.4621 19.8938C20.4704 19.8821 20.4762 19.8696 20.4837 19.858L20.5037 19.8246L20.522 19.7863L20.5387 19.7505L20.5521 19.713L20.5662 19.673L20.5754 19.6355C20.5796 19.6213 20.5837 19.608 20.5862 19.5938L20.5929 19.5496C20.5946 19.538 20.5971 19.5263 20.5979 19.5138C20.6007 19.4864 20.602 19.4589 20.6021 19.4313V15.2646C20.6021 15.0436 20.5143 14.8317 20.358 14.6754C20.2017 14.5191 19.9897 14.4313 19.7687 14.4313C19.5477 14.4313 19.3357 14.5191 19.1795 14.6754C19.0232 14.8317 18.9354 15.0436 18.9354 15.2646V17.4196L13.6912 12.1755C13.534 12.0237 13.3235 11.9397 13.105 11.9416C12.8866 11.9435 12.6775 12.0311 12.523 12.1856C12.3685 12.3401 12.2809 12.5492 12.279 12.7676C12.2771 12.9861 12.3611 13.1966 12.5129 13.3538L17.7571 18.598H15.6021C15.381 18.598 15.1691 18.6858 15.0128 18.8421C14.8565 18.9983 14.7687 19.2103 14.7687 19.4313C14.7687 19.6523 14.8565 19.8643 15.0128 20.0206C15.1691 20.1769 15.381 20.2646 15.6021 20.2646H19.7687C19.7963 20.2646 19.8238 20.2633 19.8512 20.2605L19.8871 20.2555L19.9312 20.2488L19.9729 20.238L20.0104 20.2288L20.0504 20.2146L20.0879 20.2013L20.1237 20.1846L20.1612 20.1663L20.1946 20.1463L20.2312 20.1246L20.267 20.098L20.2971 20.0755C20.3182 20.0581 20.3385 20.0398 20.3579 20.0205L20.3587 20.0196C20.3779 20.0005 20.3962 19.9805 20.4129 19.9596L20.4354 19.9296ZM3.44705 1.93132H5.60205C5.82306 1.93132 6.03503 1.84352 6.19131 1.68724C6.34759 1.53096 6.43538 1.319 6.43538 1.09798C6.43538 0.876968 6.34759 0.665006 6.19131 0.508726C6.03503 0.352446 5.82306 0.264648 5.60205 0.264648L1.43538 0.264648C1.40788 0.264648 1.38038 0.266315 1.35288 0.268815C1.34038 0.269648 1.32872 0.272148 1.31705 0.273815L1.27288 0.281315L1.23122 0.291315L1.19372 0.300482L1.15372 0.314648L1.11622 0.327982L1.08038 0.344648L1.04288 0.362982L1.00955 0.382982L0.972884 0.404648C0.960384 0.412982 0.947884 0.422982 0.937051 0.431315L0.907051 0.453815C0.864424 0.488777 0.825346 0.527855 0.790384 0.570482C0.783717 0.577982 0.777051 0.589648 0.768717 0.598815L0.742051 0.635482C0.733717 0.647148 0.727884 0.659648 0.720384 0.671315L0.700384 0.704648L0.682051 0.742982L0.665384 0.778815L0.652051 0.816315L0.637884 0.856315L0.627884 0.893815L0.618717 0.935482L0.611217 0.979648L0.606217 1.01465C0.603464 1.04234 0.602073 1.07015 0.602051 1.09798V5.26465C0.602051 5.48566 0.689848 5.69762 0.846128 5.8539C1.00241 6.01018 1.21437 6.09798 1.43538 6.09798C1.6564 6.09798 1.86836 6.01018 2.02464 5.8539C2.18092 5.69762 2.26872 5.48566 2.26872 5.26465V3.10965L7.51288 8.35381C7.67005 8.50561 7.88055 8.58961 8.09905 8.58771C8.31755 8.58581 8.52656 8.49817 8.68107 8.34366C8.83557 8.18916 8.92321 7.98015 8.92511 7.76165C8.92701 7.54315 8.84302 7.33265 8.69122 7.17548L3.44705 1.93132Z" fill="white"/>
</g>
</g>
</g>
<defs>
<clipPath id="clip0_263_154">
<rect width="20" height="20" fill="white" transform="translate(0.602051 0.264648)"/>
</clipPath>
<clipPath id="clip1_263_154">
<rect width="20" height="20" fill="white" transform="translate(0.602051 0.264648)"/>
</clipPath>
</defs>
</svg>
