<svg width="21" height="21" viewBox="0 0 21 21" fill="none" xmlns="http://www.w3.org/2000/svg">
<g clip-path="url(#clip0_263_146)">
<g clip-path="url(#clip1_263_146)">
<mask id="mask0_263_146" style="mask-type:luminance" maskUnits="userSpaceOnUse" x="0" y="0" width="20" height="20">
<path d="M0.765137 0.48877H19.9651V19.6888H0.765137V0.48877Z" fill="white"/>
</mask>
<g mask="url(#mask0_263_146)">
<path d="M19.9651 1.05117C19.9651 0.902012 19.9059 0.758963 19.8004 0.653493C19.6949 0.548022 19.5519 0.48877 19.4027 0.48877H1.32754C1.25368 0.48877 1.18055 0.503316 1.11232 0.53158C1.04408 0.559843 0.982084 0.601269 0.92986 0.653493C0.824389 0.758963 0.765137 0.902012 0.765137 1.05117V19.1256C0.765137 19.436 1.01714 19.688 1.32754 19.688H16.5899C16.7391 19.688 16.8821 19.6287 16.9876 19.5232C17.0931 19.4178 17.1523 19.2747 17.1523 19.1256V17.4768C17.1523 17.3276 17.0931 17.1846 16.9876 17.0791C16.8821 16.9736 16.7391 16.9144 16.5899 16.9144C16.4408 16.9144 16.2977 16.9736 16.1923 17.0791C16.0868 17.1846 16.0275 17.3276 16.0275 17.4768V18.5632H1.88994V15.1576H7.55314C7.70229 15.1576 7.84534 15.0983 7.95081 14.9928C8.05628 14.8874 8.11554 14.7443 8.11554 14.5952C8.11554 14.446 8.05628 14.303 7.95081 14.1975C7.84534 14.092 7.70229 14.0328 7.55314 14.0328H1.88994V1.61437H10.8131V7.16397C10.8131 7.31313 10.8724 7.45618 10.9779 7.56165C11.0833 7.66712 11.2264 7.72637 11.3755 7.72637C11.5247 7.72637 11.6677 7.66712 11.7732 7.56165C11.8787 7.45618 11.9379 7.31313 11.9379 7.16397V1.61437H18.8403V11.8888H12.0155V10.5392C12.0155 10.3899 11.9562 10.2468 11.8507 10.1412C11.7452 10.0357 11.602 9.97637 11.4527 9.97637C11.3035 9.97637 11.1603 10.0357 11.0548 10.1412C10.9492 10.2468 10.8899 10.3899 10.8899 10.5392V12.4512C10.8899 12.7616 11.1419 13.0136 11.4531 13.0136H16.1019V14.1008C16.1019 14.25 16.1612 14.3932 16.2668 14.4987C16.3723 14.6043 16.5155 14.6636 16.6647 14.6636C16.814 14.6636 16.9572 14.6043 17.0627 14.4987C17.1682 14.3932 17.2275 14.25 17.2275 14.1008V13.0136H19.4027C19.5519 13.0136 19.6949 12.9543 19.8004 12.8488C19.9059 12.7434 19.9651 12.6003 19.9651 12.4512V1.05117Z" fill="white"/>
</g>
</g>
</g>
<defs>
<clipPath id="clip0_263_146">
<rect width="20" height="20" fill="white" transform="translate(0.632324 0.264648)"/>
</clipPath>
<clipPath id="clip1_263_146">
<rect width="20" height="20" fill="white" transform="translate(0.632324 0.264648)"/>
</clipPath>
</defs>
</svg>
